<svg width="229" height="72" viewBox="0 0 229 72" fill="none" xmlns="http://www.w3.org/2000/svg">
<path d="M72.0657 55.5579C70.7653 55.4111 69.6326 55.3691 68.521 55.1804C67.4513 54.9916 66.4235 54.7609 65.4167 54.5092C62.9626 53.8799 60.6135 53.0619 58.4321 52.0551C51.6362 48.9089 46.1408 43.9169 42.0297 36.9323C39.5967 32.8002 38.6528 28.2487 39.7015 23.4664C40.5196 19.7329 42.3863 16.6076 45.8891 14.8458C48.3222 13.6082 50.7553 13.4404 53.1254 14.2165C54.0064 14.4892 54.8663 14.9087 55.7263 15.4331C55.9151 15.5589 56.1039 15.7267 56.2717 15.8735C56.2507 15.9574 56.2297 16.0413 56.2297 16.1252C54.4678 16.2091 52.7059 16.293 50.9231 16.3769C50.8182 17.2369 51.1748 17.7613 52.0977 17.8032C52.5591 17.8242 53.0625 17.7193 53.524 17.5515C56.859 16.335 60.0471 16.7964 63.0885 18.3905C64.2631 18.9988 64.9972 20.0475 64.9762 21.5367C64.2631 21.306 63.6338 21.0333 62.9626 20.8655C61.4105 20.488 60.0052 20.5299 58.7047 20.9285C57.2365 21.3689 55.9151 22.2918 54.7405 23.6342C54.3839 24.0327 54.1322 24.1376 53.5869 24.0327C50.9231 23.5293 48.469 23.8859 46.4554 25.6688C46.2457 25.8575 46.0359 26.0463 45.8262 26.2561C44.3789 27.8082 43.9804 29.7169 44.337 31.7934C44.5467 33.0939 44.9452 34.2894 45.4696 35.4011C46.5184 37.6454 48.1334 39.5541 50.0002 41.337C50.5875 40.8126 50.4407 40.2463 50.168 39.7639C49.6646 38.841 49.0983 37.96 48.5529 37.0581C48.5319 37.0162 48.49 36.9532 48.469 36.9113C47.4413 35.2752 46.4974 33.5973 46.3296 31.6046C46.2247 30.3671 46.4135 29.2555 46.9588 28.3116C47.3364 27.6614 47.9027 27.116 48.6578 26.6756C50.3987 25.6268 52.2235 25.7317 53.9854 26.7385C55.6634 27.7033 56.8799 29.1506 57.7818 30.7866C58.5579 32.2339 59.292 33.7231 60.0052 35.2123C60.3827 35.9884 60.7603 36.7854 61.1378 37.5615C63.1934 41.8194 65.5006 45.9305 68.0805 49.8528C69.2341 51.5937 70.4506 53.3136 71.7091 54.9916C71.793 55.0965 71.8769 55.2433 72.0657 55.5579Z" fill="#497569"/>
<path d="M48.8676 8.86794C45.8891 11.8254 43.0575 14.615 40.205 17.4466C30.9551 11.3639 22.5861 11.6786 16.5453 18.4325C11.008 24.641 10.9031 33.7021 16.2936 40.0365C22.2505 47.0421 30.4097 47.4616 40.2469 41.295C43.0785 44.1266 45.8891 46.9373 48.8466 49.8947C42.68 57.0681 36.4085 64.3464 30.137 71.6456C29.9692 71.5827 29.7805 71.5198 29.6127 71.4359C29.5707 70.8276 29.4868 70.2193 29.4868 69.6111C29.4658 66.2761 29.4449 62.9201 29.5078 59.5851C29.5288 58.4105 29.1512 58.0749 27.9766 58.033C13.2103 57.4666 1.27566 46.287 0.101067 32.0032C-1.0945 17.4047 8.42808 4.35835 22.7749 1.317C32.7169 -0.738537 41.4215 1.96722 48.8676 8.86794Z" fill="#497569"/>
<path d="M34.3529 27.179C35.5904 27.221 36.5763 28.3117 36.4294 29.5702C36.2826 30.9126 35.4856 31.5837 34.1432 31.5418C32.7798 31.4998 32.1086 30.6399 32.0247 29.3814C31.9618 28.1858 33.1574 27.1161 34.3529 27.179Z" fill="#497569"/>
<path d="M27.2216 27.1581C28.4591 27.1791 29.5288 28.2697 29.382 29.5073C29.2352 30.8077 28.4801 31.5628 27.1377 31.5628C25.7953 31.5418 25.0821 30.7028 24.9353 29.4443C24.8095 28.2907 26.026 27.1581 27.2216 27.1581Z" fill="#497569"/>
<path d="M19.4608 27.1998C21.3905 27.2208 22.3973 28.2486 22.2714 29.5071C22.1456 30.8285 21.3905 31.5626 20.0271 31.5416C18.7057 31.5206 17.6569 30.4929 17.9925 29.1924C18.2233 28.3325 19.1042 27.6613 19.4608 27.1998Z" fill="#497569"/>
<path d="M93.289 44.7616C92.6996 45.147 91.9403 45.453 91.011 45.6796C90.1043 45.9063 89.1863 46.0196 88.257 46.0196C85.673 46.0196 83.633 45.147 82.137 43.4016C80.641 41.6563 79.893 39.3216 79.893 36.3976C79.893 33.4736 80.641 31.139 82.137 29.3936C83.6556 27.6256 85.707 26.7416 88.291 26.7416C89.2203 26.7416 90.1383 26.855 91.045 27.0816C91.9516 27.2856 92.6656 27.5576 93.187 27.8976V31.5696C92.779 31.1616 92.133 30.833 91.249 30.5836C90.3876 30.3116 89.5036 30.1756 88.597 30.1756C86.9423 30.1756 85.7183 30.6743 84.925 31.6716C84.1316 32.669 83.735 34.1876 83.735 36.2276C83.735 38.3583 84.1316 39.9563 84.925 41.0216C85.7183 42.0643 86.9196 42.5856 88.529 42.5856C89.3676 42.5856 90.2403 42.4496 91.147 42.1776C92.0763 41.9056 92.7903 41.577 93.289 41.1916V44.7616ZM101.454 31.9776V45.6456H97.6457V18.7516H101.454V28.4756L101.556 28.5776C102.44 27.943 103.335 27.4783 104.242 27.1836C105.171 26.889 106.123 26.7416 107.098 26.7416C108.911 26.7416 110.282 27.2403 111.212 28.2376C112.141 29.235 112.606 30.7083 112.606 32.6576V45.6456H108.798V33.9156C108.798 32.5556 108.582 31.5923 108.152 31.0256C107.744 30.4363 107.052 30.1416 106.078 30.1416C105.216 30.1416 104.321 30.323 103.392 30.6856C102.462 31.0483 101.816 31.479 101.454 31.9776ZM128.352 43.9116C127.762 44.5463 126.992 45.0563 126.04 45.4416C125.11 45.827 124.113 46.0196 123.048 46.0196C121.302 46.0196 119.908 45.4983 118.866 44.4556C117.823 43.413 117.302 42.0416 117.302 40.3416C117.302 38.4376 117.993 36.9756 119.376 35.9556C120.781 34.913 122.787 34.3916 125.394 34.3916H127.978C128 34.3236 128.012 34.2443 128.012 34.1536C128.012 34.063 128.012 33.9043 128.012 33.6776C128.012 32.363 127.717 31.445 127.128 30.9236C126.561 30.4023 125.564 30.1416 124.136 30.1416C123.206 30.1416 122.3 30.2436 121.416 30.4476C120.554 30.6516 119.648 30.9803 118.696 31.4336V27.9316C119.081 27.7503 119.523 27.5916 120.022 27.4556C120.543 27.297 121.11 27.161 121.722 27.0476C122.243 26.9343 122.776 26.855 123.32 26.8096C123.864 26.7643 124.396 26.7416 124.918 26.7416C127.366 26.7416 129.122 27.331 130.188 28.5096C131.253 29.6883 131.786 31.581 131.786 34.1876V45.6456H129.032L128.454 43.9456L128.352 43.9116ZM125.802 37.2136C124.215 37.2136 123.036 37.4403 122.266 37.8936C121.518 38.347 121.144 39.0723 121.144 40.0696C121.144 40.9763 121.393 41.6676 121.892 42.1436C122.39 42.6196 123.116 42.8576 124.068 42.8576C124.952 42.8576 125.79 42.665 126.584 42.2796C127.4 41.8943 127.966 41.441 128.284 40.9196V37.2136H125.802ZM147.474 45.3736C146.975 45.5776 146.42 45.7363 145.808 45.8496C145.196 45.963 144.572 46.0196 143.938 46.0196C141.988 46.0196 140.526 45.4756 139.552 44.3876C138.6 43.2996 138.124 41.6676 138.124 39.4916V30.3796H135.132V27.1156H138.124V22.2196H141.932V27.1156H147.1V30.3796H141.932V37.3836C141.932 39.401 142.124 40.7723 142.51 41.4976C142.918 42.223 143.666 42.5856 144.754 42.5856C145.184 42.5856 145.638 42.5403 146.114 42.4496C146.612 42.359 147.066 42.2456 147.474 42.1096V45.3736ZM155.348 37.7576V45.6456H151.506V18.7516H155.348V34.5276C156.277 34.5276 156.912 34.437 157.252 34.2556C157.614 34.0743 158 33.723 158.408 33.2016C158.657 32.907 158.94 32.533 159.258 32.0796C159.575 31.6036 159.972 30.969 160.448 30.1756C160.629 29.881 160.844 29.541 161.094 29.1556C161.343 28.7476 161.751 28.0676 162.318 27.1156H166.568L161.774 34.3576C161.411 34.9016 161.06 35.3436 160.72 35.6836C160.38 36.001 160.108 36.1596 159.904 36.1596V36.2616C160.108 36.2616 160.368 36.4316 160.686 36.7716C161.026 37.089 161.422 37.565 161.876 38.1996L167.078 45.6456H162.556C161.921 44.6936 161.468 44.0136 161.196 43.6056C160.924 43.1976 160.686 42.835 160.482 42.5176C159.983 41.7696 159.564 41.1576 159.224 40.6816C158.906 40.2056 158.623 39.809 158.374 39.4916C157.852 38.8116 157.41 38.3583 157.048 38.1316C156.708 37.8823 156.141 37.7576 155.348 37.7576ZM173.699 33.4056V45.6456H169.891V27.1156H173.699V29.3256L173.835 29.4276C174.469 28.5663 175.229 27.909 176.113 27.4556C177.019 26.9796 178.017 26.7416 179.105 26.7416C179.309 26.7416 179.501 26.753 179.683 26.7756C179.887 26.7756 180.079 26.787 180.261 26.8096V30.9576C180.147 30.935 180.034 30.9236 179.921 30.9236C179.807 30.9236 179.671 30.9236 179.513 30.9236C178.107 30.9236 176.895 31.1503 175.875 31.6036C174.877 32.0343 174.152 32.635 173.699 33.4056ZM199.328 36.3976C199.328 39.2763 198.569 41.5996 197.05 43.3676C195.531 45.1356 193.491 46.0196 190.93 46.0196C188.391 46.0196 186.363 45.1356 184.844 43.3676C183.325 41.5996 182.566 39.2763 182.566 36.3976C182.566 33.519 183.325 31.1956 184.844 29.4276C186.363 27.637 188.391 26.7416 190.93 26.7416C193.469 26.7416 195.497 27.637 197.016 29.4276C198.557 31.1956 199.328 33.519 199.328 36.3976ZM195.486 36.3976C195.486 34.4936 195.078 32.975 194.262 31.8416C193.446 30.7083 192.335 30.1416 190.93 30.1416C189.502 30.1416 188.391 30.7083 187.598 31.8416C186.805 32.9523 186.408 34.471 186.408 36.3976C186.408 38.3243 186.805 39.843 187.598 40.9536C188.391 42.0643 189.502 42.6196 190.93 42.6196C192.335 42.6196 193.446 42.0643 194.262 40.9536C195.078 39.8203 195.486 38.3016 195.486 36.3976ZM213.464 35.5476L210.336 45.6456H206.494L200.952 27.1156H205.066L207.752 37.7916C208.002 38.721 208.183 39.469 208.296 40.0356C208.41 40.5796 208.455 40.931 208.432 41.0896H208.534C208.534 40.931 208.602 40.5796 208.738 40.0356C208.874 39.469 209.078 38.721 209.35 37.7916L212.478 27.1156H216.286L219.346 37.7916C219.618 38.7436 219.822 39.4916 219.958 40.0356C220.094 40.5796 220.151 40.931 220.128 41.0896H220.23C220.23 40.931 220.287 40.5796 220.4 40.0356C220.536 39.4916 220.718 38.7436 220.944 37.7916L223.664 27.1156H227.608L221.998 45.6456H218.156L215.13 35.5476C214.881 34.6636 214.688 33.9496 214.552 33.4056C214.416 32.8616 214.348 32.4763 214.348 32.2496H214.246C214.269 32.4763 214.212 32.8616 214.076 33.4056C213.94 33.9496 213.736 34.6636 213.464 35.5476Z" fill="#497569"/>
</svg>
